<svg width="427" height="438" viewBox="0 0 427 438" fill="none" xmlns="http://www.w3.org/2000/svg">
<path d="M189 1.46658C151.267 5.06659 117.533 17.3333 83.6667 39.8666C65.1334 52.1332 39.9334 77.3333 27.4001 96.2666C17.9334 110.267 6.06671 132.8 5.40005 137.867C5.00005 140.133 17.6667 145.467 105.933 179.867C161.4 201.6 207.267 219.733 207.667 220.267C210.467 223.067 188.2 254.933 173.933 268.267C144.867 295.6 113.667 306.667 71.2667 304.933C49.8001 304 36.2001 301.467 14.7334 294.267C7.13338 291.733 0.866715 289.733 0.600048 289.867C-0.333285 290.933 6.46671 312.8 10.3334 321.2C31.6667 366.133 85 410 140.067 428C166.067 436.4 176.867 438 208.333 437.867C240.333 437.867 251.533 436.133 278.2 427.467C340.867 406.933 392.867 356.133 415 294C423.533 269.867 425.933 256.533 426.6 227.733C427.4 199.067 426.333 188 420.867 166C409.533 121.067 384.6 81.5999 348.2 51.3333C315.4 23.8666 270.067 4.93326 230.6 2.13324C208.733 0.533234 200.6 0.399902 189 1.46658ZM162.733 67.9999C172.067 73.7332 175.4 87.5999 169.667 96.9333C164.2 106 150.067 109.333 141.533 103.6C128.067 94.5333 127.533 77.0666 140.333 68.2666C146.067 64.3999 156.467 64.2666 162.733 67.9999ZM243.8 91.4666C254.067 96.2666 258.333 110.933 252.067 119.867C247.533 126.667 242.6 129.6 235.4 130.267C223.133 131.333 213.667 122.667 213.667 110.133C213.667 93.9999 229.133 84.5333 243.8 91.4666ZM327 116.267C334.333 121.333 336.867 125.867 336.867 134C336.867 142.133 334.467 146.667 326.867 151.733C323.133 154.4 321.133 154.8 315.267 154.4C307.8 153.733 303.133 151.067 298.467 144.933C294.733 139.867 294.733 128.133 298.467 123.067C303.133 116.667 309.4 113.333 316.333 113.333C320.6 113.333 323.933 114.267 327 116.267Z" fill="#1DA1F2"/>
</svg>
