<svg width="638" height="438" viewBox="0 0 638 438" fill="none" xmlns="http://www.w3.org/2000/svg">
<path d="M400 1.46658C362.267 5.06658 328.533 17.3332 294.667 39.8666C276.133 52.1332 250.933 77.3332 238.4 96.2666C228.933 110.267 217.067 132.8 216.4 137.867C216 140.133 228.667 145.467 316.933 179.867C372.4 201.6 418.267 219.733 418.667 220.267C421.467 223.067 399.2 254.933 384.933 268.267C355.867 295.6 324.667 306.667 282.267 304.933C260.8 304 247.2 301.467 225.733 294.267C218.133 291.733 211.867 289.733 211.6 289.867C210.667 290.933 217.467 312.8 221.333 321.2C242.667 366.133 296 410 351.067 428C377.067 436.4 387.867 438 419.333 437.867C451.333 437.867 462.533 436.133 489.2 427.467C551.867 406.933 603.867 356.133 626 294C634.533 269.867 636.933 256.533 637.6 227.733C638.4 199.067 637.333 188 631.867 166C620.533 121.067 595.6 81.5999 559.2 51.3332C526.4 23.8666 481.067 4.93325 441.6 2.13325C419.733 0.533245 411.6 0.399912 400 1.46658ZM373.733 67.9999C383.067 73.7332 386.4 87.5999 380.667 96.9333C375.2 106 361.067 109.333 352.533 103.6C339.067 94.5333 338.533 77.0666 351.333 68.2666C357.067 64.3999 367.467 64.2666 373.733 67.9999ZM454.8 91.4666C465.067 96.2666 469.333 110.933 463.067 119.867C458.533 126.667 453.6 129.6 446.4 130.267C434.133 131.333 424.667 122.667 424.667 110.133C424.667 93.9999 440.133 84.5332 454.8 91.4666ZM538 116.267C545.333 121.333 547.867 125.867 547.867 134C547.867 142.133 545.467 146.667 537.867 151.733C534.133 154.4 532.133 154.8 526.267 154.4C518.8 153.733 514.133 151.067 509.467 144.933C505.733 139.867 505.733 128.133 509.467 123.067C514.133 116.667 520.4 113.333 527.333 113.333C531.6 113.333 534.933 114.267 538 116.267Z" fill="#1DA1F2"/>
<path d="M29.0667 77.8665C24.0001 80.1332 21.7334 83.9998 21.7334 90.1332C21.7334 96.7998 25.0667 100.8 32.9334 103.733C62.0001 114.4 148.133 142.667 151.867 142.667C159.067 142.667 165.333 136.533 165.333 129.467C165.333 119.733 164.533 119.333 99.6001 97.3332C67.0667 86.2665 38.9334 76.9332 36.9334 76.6665C34.9334 76.2665 31.4667 76.7998 29.0667 77.8665Z" fill="#1DA1F2"/>
<path d="M7.73337 192.667C-3.73329 197.6 -1.06662 215.867 11.4667 217.867C15.8667 218.533 123.333 222.667 135.6 222.667C142.933 222.667 149.333 218.133 150.667 212C151.733 206.933 148.267 199.6 143.6 197.333C141.067 196.133 121.6 194.933 80.6667 193.2C9.33337 190.267 13.0667 190.4 7.73337 192.667Z" fill="#1DA1F2"/>
<path d="M81.3334 292C23.7334 306.933 19.7334 308.133 16.4001 312C8.53342 320.666 14.2668 333.333 26.0001 333.333C28.9334 333.333 58.5334 326.4 91.7334 318C147.6 303.733 152.267 302.266 155.733 298.533C162.933 290.666 158.133 278 147.333 276.666C144.267 276.266 122.267 281.466 81.3334 292Z" fill="#1DA1F2"/>
</svg>
